<?xml version="1.0" standalone="no"?>
<!DOCTYPE svg PUBLIC "-//W3C//DTD SVG 20010904//EN"
 "http://www.w3.org/TR/2001/REC-SVG-20010904/DTD/svg10.dtd">
<svg version="1.0" xmlns="http://www.w3.org/2000/svg"
 width="542.000000pt" height="542.000000pt" viewBox="0 0 542.000000 542.000000"
 preserveAspectRatio="xMidYMid meet">
<metadata>
Created by potrace 1.14, written by Peter Selinger 2001-2017
</metadata>
<g transform="translate(0.000000,542.000000) scale(0.100000,-0.100000)"
fill="#000000" stroke="none">
<path d="M384 5411 c-11 -11 -116 -46 -127 -43 -5 1 -6 -2 -3 -7 5 -8 -8 -18
-27 -19 -5 0 -17 -10 -26 -21 -10 -12 -22 -21 -27 -21 -10 0 -54 -50 -54 -62
0 -4 -7 -8 -15 -8 -13 0 -17 -6 -14 -26 0 -3 -10 -20 -23 -37 -14 -18 -33 -54
-44 -82 -18 -49 -19 -116 -21 -2360 l-2 -2310 23 -65 c12 -36 32 -81 44 -100
12 -19 22 -41 22 -48 0 -7 4 -10 10 -7 5 3 10 2 10 -3 0 -16 94 -105 115 -110
6 -1 17 -8 25 -15 8 -7 48 -25 89 -40 l74 -27 2301 0 2301 0 65 26 c36 15 77
35 93 46 15 11 27 17 27 13 0 -3 11 4 24 17 13 13 35 32 50 42 14 10 26 23 26
29 0 5 8 16 18 23 9 7 17 16 18 21 2 20 17 42 25 37 5 -3 9 -2 8 3 -2 9 4 27
29 88 16 37 17 215 19 2350 2 2301 2 2310 -18 2370 -11 33 -23 67 -26 75 -4 8
-5 19 -4 23 1 5 -3 6 -8 3 -5 -4 -13 3 -16 15 -11 35 -118 152 -129 141 -4 -3
-6 0 -6 6 0 7 -3 11 -7 10 -14 -2 -43 14 -38 21 2 4 -1 8 -8 8 -7 0 -41 12
-77 26 l-65 27 -2311 0 c-1297 0 -2314 -4 -2320 -9z"/>
</g>
</svg>
